<svg xmlns="http://www.w3.org/2000/svg" version="1.1" xmlns:xlink="http://www.w3.org/1999/xlink"
    xmlns:svgjs="http://svgjs.dev/svgjs" width="100.7612359841165" height="150.915625"
    viewBox="0 0 2000 2790">
    <g transform="matrix(1,0,0,1,-1.6427380397738034,1.1316405138607024)">
        <svg viewBox="0 0 177 247" data-background-color="#ffffff"
            preserveAspectRatio="xMidYMid meet" height="2790" width="2000"
            xmlns="http://www.w3.org/2000/svg" xmlns:xlink="http://www.w3.org/1999/xlink">
            <g id="tight-bounds"
                transform="matrix(1,0,0,1,0.14540967625384837,-0.09997365579206985)">
                <svg viewBox="0 0 176.70918044444446 247.2" height="247.2"
                    width="176.70918044444446">
                    <g>
                        <svg viewBox="0 0 176.70918044444446 247.2" height="247.2"
                            width="176.70918044444446">
                            <g>
                                <svg viewBox="0 0 176.70918044444446 247.2" height="247.2"
                                    width="176.70918044444446">
                                    <g id="textblocktransform">
                                        <svg viewBox="0 0 176.70918044444446 247.2" height="247.2"
                                            width="176.70918044444446" id="textblock">
                                            <g>
                                                <svg viewBox="0 0 176.70918044444446 247.2"
                                                    height="247.2" width="176.70918044444446">
                                                    <path
                                                        d="M176.295 53.02C175.465 27.36 173.097 20.227 173.097 20.227 165.828-6.202 156.756-0.506 148.607 3.292 134.218 3.446 119.888 9.091 105.532 12.119 75.401 12.581 45.012 4.986 15.031 23.717 12.214 29.464-2.922 24.846 0.501 56.304 1.398 69.39 4.671 83.913 4.572 95.922 5.02 98.026 5.643 93.202 5.909 96.23 6.84 104.39 8.36 100.541 9.606 105.365 7.87 118.246 9.116 128.971 10.304 140.21 8.21 143.135 5.527 141.749 4.322 151.449 4.198 158.479 3.525 157.145 2.785 156.837 2.246 156.632 1.157 157.402 1.34 159.608 1.963 167.152-0.712 171.514 0.966 178.904-0.189 186.91 1.764 193.838 1.498 202.511 1.465 204.255 1.647 205.744 1.938 206.154 3.226 208.361 1.348 212.672 1.548 217.342 14.757 249.262 29.087 227.195 42.62 241.872 46.134 231.608 43.492 245.516 44.896 243.36 45.993 240.846 46.79 251.263 48.028 245.362 48.219 243.668 47.928 239.665 48.61 240.435 48.967 240.846 49.282 240.743 49.332 238.382 49.407 234.841 48.751 237.048 48.576 235.201 50.462 225.861 49.997 248.081 51.766 247.158 51.683 244.438 51.168 240.538 52.223 241.051 53.27 237.151 53.303 233.918 54.234 242.693 54.267 244.592 54.433 245.926 54.699 246.85 57.607 237.305 60.498 250.237 63.546 245.926 65.416 241.205 67.21 248.492 69.104 246.696 69.769 245.259 70.442 242.693 71.081 247.004 78.915 247.928 87.264 244.079 94.691 247.158 114.538 241.41 135.747 249.518 156.673 241.923 161.608 238.998 166.734 234.841 171.544 231.506 171.544 231.506 175.44 222.371 175.44 181.316S176.271 145.393 176.395 112.703C176.52 80.013 177.101 78.679 176.271 53.02Z"
                                                        opacity="1" fill="#ee3e38"
                                                        data-fill-palette-color="tertiary"></path>
                                                    <g
                                                        transform="matrix(1,0,0,1,55.76832,26.230666666666668)">
                                                        <svg width="65.17254044444445"
                                                            viewBox="1.7 -37.5 12.55 37.5"
                                                            height="194.73866666666666"
                                                            data-palette-color="#ffffff">
                                                            <path
                                                                d="M13.15 0Q12.75 0 12.48-0.25 12.2-0.5 12.2-0.85L12.2-0.85 12.2-7.4Q12.2-8 9.65-8.5 7.1-9 5.45-9L5.45-9Q5.35-9 5.13-8.25 4.9-7.5 4.8-7.15L4.8-7.15Q4.15-4.55 3.5-1.6L3.5-1.6 3.25-0.5Q3.15-0.1 2.75-0.1L2.75-0.1Q2.35-0.1 2.02-0.35 1.7-0.6 1.7-0.95L1.7-0.95 1.75-1.05 1.75-1.1 2.3-3.6Q2.9-5.95 3.35-8.2L3.35-8.2Q3.85-10.75 4.1-11.5L4.1-11.5Q4.5-13.15 5.7-19.75L5.7-19.75 6-21.4Q7.3-29.1 7.8-31.1L7.8-31.1Q8.05-32.3 8.7-34.65L8.7-34.65Q8.95-35.65 9.4-36.65L9.4-36.65Q9.85-37.5 10.15-37.5L10.15-37.5Q10.95-37.5 11.3-37L11.3-37Q11.55-36.55 12.08-32.05 12.6-27.55 13-22.95L13-22.95 13.65-14.65Q13.65-12.5 13.95-8.15L13.95-8.15Q14.25-3.75 14.25-1.6L14.25-1.6 14.25-1.4Q14.25-0.85 14.1-0.4L14.1-0.4Q13.9 0 13.15 0L13.15 0ZM11.15-9.65Q12.15-9.65 12.15-10.15L12.15-10.15Q12.15-13.25 11.8-18.63 11.45-24 11.05-28.1L11.05-28.1Q10.95-29.85 10.65-31.95L10.65-31.95 10.45-33.9Q10.45-33.85 10.35-34.45L10.35-34.45 10.25-35.05Q9.85-33.95 9.47-32 9.1-30.05 8.7-27.4L8.7-27.4Q7.5-19.95 6.65-16.2L6.65-16.2 6.2-14.5Q5.45-12 5.45-10.7L5.45-10.7 5.45-10.4Q7.65-9.7 10.5-9.7L10.5-9.7 10.8-9.7Q10.95-9.65 11.15-9.65L11.15-9.65Z"
                                                                opacity="1"
                                                                transform="matrix(1,0,0,1,0,0)"
                                                                fill="#ffffff"
                                                                class="wordmark-text-0"
                                                                data-fill-palette-color="quaternary"
                                                                id="text-0"></path>
                                                        </svg>
                                                    </g>
                                                </svg>
                                            </g>
                                        </svg>
                                    </g>
                                </svg>
                            </g>
                            <g></g>
                        </svg>
                    </g>
                    <defs></defs>
                </svg>
                <rect width="176.70918044444446" height="247.2" fill="none" stroke="none"
                    visibility="hidden"></rect>
            </g>
        </svg>
    </g>
</svg>